# xmcd
#
# Track frame offsets: 
#        150
#        13848
#        29824
#        47388
#        66123
#        81006
#        95606
#        115351
#        134912
#        149802
#        168349
#        181629
#        199556
#        218876
#        233654
#        248446
#        263579
#        281948
#        299014
#        314614
#        329483
#
# Disc length: 4616 seconds
#
# Revision: 0
# Processed by: cddbd v1.5.2PL0 Copyright (c) Steve Scherf et al.
# Submitted via: ExactAudioCopy v0.99pb4
#
DISCID=47120615
DTITLE=Various Artist - HP201015
DYEAR=2010
DGENRE=Top 40
TTITLE0=Dead By Sunrise - Too Late
TTITLE1=Ryan Star - Breathe [Radio Edit]
TTITLE2=Rob Thomas - Mockingbird [Radio Edit]
TTITLE3=John Mayer with Taylor Swift - Half Of My Heart
TTITLE4=Orianthi - Shut Up and Kiss Me [Radio Mix]
TTITLE5=Flo Rida feat T-Pain - Zoosk Girl
TTITLE6=Lloyd feat Mystikal - Set Me Free
TTITLE7=Erykah Badu - Turn Me Away (Get Munny)
TTITLE8=Nicki Minaj feat Sean Garrett - Massive Attack
TTITLE9=Diddy - Dirty Money feat T.I. - Hello Good Morning [Radio Clea
TTITLE9=n]
TTITLE10=Randy Houser - I'm All About It [Album Version]
TTITLE11=Steve Azar - Sunshine [Single Version]
TTITLE12=Harters - Jenny
TTITLE13=Against Me! - I Was A Teenage Anarchist
TTITLE14=Jack Johnson - You And Your Heart
TTITLE15=Phoenix - Lisztomania [Radio]
TTITLE16=Samantha James - Waves Of Change [Kaskade Radio Edit]
TTITLE17=Black Eyed Peas - Imma Be [DJ Dan Clean Radio Mix]
TTITLE18=BWO feat Velvet - Right Here Right Now [Radio Edit]
TTITLE19=Chasen - Castaway [Album Version]
TTITLE20=Abandon - Hero [Album Version]
EXTD=
EXTT0=
EXTT1=
EXTT2=
EXTT3=
EXTT4=
EXTT5=
EXTT6=
EXTT7=
EXTT8=
EXTT9=
EXTT10=
EXTT11=
EXTT12=
EXTT13=
EXTT14=
EXTT15=
EXTT16=
EXTT17=
EXTT18=
EXTT19=
EXTT20=
PLAYORDER=
